<svg xmlns="http://www.w3.org/2000/svg" version="1.1" xmlns:xlink="http://www.w3.org/1999/xlink" xmlns:svgjs="http://svgjs.dev/svgjs" width="1440" height="560" preserveAspectRatio="none" viewBox="0 0 1440 560"><g mask="url(&quot;#SvgjsMask2987&quot;)" fill="none"><rect width="1440" height="560" x="0" y="0" fill="url(&quot;#SvgjsLinearGradient2988&quot;)"></rect><path d="M435.74 4.74L446.22 12.08 441.36 23.93 451.85 31.28 446.98 43.12 457.47 50.47 452.61 62.32M428.06 6.99L438.55 14.33 433.68 26.18 444.17 33.53 439.3 45.37 449.79 52.72 444.93 64.57" stroke="#037b0b" stroke-width="1" stroke-dasharray="3, 3"></path><circle r="81.26473211326707" cx="39.94" cy="241.74" fill="#e73635"></circle><path d="M1217.3 189.41 L1105 117.92L1218.3391393042245 96.47586069577565z" fill="#e73635"></path><rect width="276" height="276" clip-path="url(&quot;#SvgjsClipPath2989&quot;)" x="657.35" y="73.04" fill="url(&quot;#SvgjsPattern2990&quot;)" transform="rotate(308.27, 795.35, 211.04)"></rect><rect width="161.28" height="161.28" clip-path="url(&quot;#SvgjsClipPath2991&quot;)" x="664.33" y="255.94" fill="url(&quot;#SvgjsPattern2992&quot;)" transform="rotate(130.51, 744.97, 336.58)"></rect><rect width="340.48" height="340.48" clip-path="url(&quot;#SvgjsClipPath2993&quot;)" x="176.61" y="298.22" fill="url(&quot;#SvgjsPattern2994&quot;)" transform="rotate(259.74, 346.85, 468.46)"></rect><rect width="332.8" height="332.8" clip-path="url(&quot;#SvgjsClipPath2995&quot;)" x="280.12" y="344.51" fill="url(&quot;#SvgjsPattern2996&quot;)" transform="rotate(148.02, 446.52, 510.91)"></rect><path d="M1030.05 267.09a5.6 5.6 0 1 0-11.19-0.53 5.6 5.6 0 1 0 11.19 0.53zM1014.07 266.33a5.6 5.6 0 1 0-11.19-0.52 5.6 5.6 0 1 0 11.19 0.52zM998.09 265.58a5.6 5.6 0 1 0-11.19-0.53 5.6 5.6 0 1 0 11.19 0.53zM982.11 264.83a5.6 5.6 0 1 0-11.19-0.53 5.6 5.6 0 1 0 11.19 0.53z" stroke="#d3b714" stroke-width="1" stroke-dasharray="3, 3"></path><circle r="61.92575984469915" cx="978.47" cy="408.79" stroke="#e73635" stroke-width="2.5"></circle><rect width="95.04" height="95.04" clip-path="url(&quot;#SvgjsClipPath2997&quot;)" x="243.42" y="93.01" fill="url(&quot;#SvgjsPattern2998&quot;)" transform="rotate(282.04, 290.94, 140.53)"></rect><rect width="154" height="154" clip-path="url(&quot;#SvgjsClipPath2999&quot;)" x="1080.6" y="463.73" fill="url(&quot;#SvgjsPattern3000&quot;)" transform="rotate(162.39, 1157.6, 540.73)"></rect><path d="M492.85 274.73L480.28 272.28 479.91 259.48 467.34 257.03 466.97 244.23 454.4 241.78 454.04 228.98M498.95 269.56L486.38 267.11 486.01 254.31 473.44 251.86 473.07 239.06 460.51 236.61 460.14 223.81" stroke="#d3b714" stroke-width="1.06" stroke-dasharray="4, 4"></path></g><defs><mask id="SvgjsMask2987"><rect width="1440" height="560" fill="#ffffff"></rect></mask><linearGradient x1="15.28%" y1="-39.29%" x2="84.72%" y2="139.29%" gradientUnits="userSpaceOnUse" id="SvgjsLinearGradient2988"><stop stop-color="#0e2a47" offset="0"></stop><stop stop-color="rgba(88, 116, 151, 1)" offset="1"></stop></linearGradient><pattern x="0" y="0" width="276" height="6" patternUnits="userSpaceOnUse" id="SvgjsPattern2990"><rect width="276" height="3" x="0" y="0" fill="#037b0b"></rect><rect width="276" height="3" x="0" y="3" fill="rgba(0, 0, 0, 0)"></rect></pattern><clipPath id="SvgjsClipPath2989"><circle r="69" cx="795.35" cy="211.04"></circle></clipPath><pattern x="0" y="0" width="161.28" height="6.72" patternUnits="userSpaceOnUse" id="SvgjsPattern2992"><rect width="161.28" height="3.36" x="0" y="0" fill="#e73635"></rect><rect width="161.28" height="3.36" x="0" y="3.36" fill="rgba(0, 0, 0, 0)"></rect></pattern><clipPath id="SvgjsClipPath2991"><circle r="40.32" cx="744.97" cy="336.58"></circle></clipPath><pattern x="0" y="0" width="340.48" height="8.96" patternUnits="userSpaceOnUse" id="SvgjsPattern2994"><rect width="340.48" height="4.48" x="0" y="0" fill="#037b0b"></rect><rect width="340.48" height="4.48" x="0" y="4.48" fill="rgba(0, 0, 0, 0)"></rect></pattern><clipPath id="SvgjsClipPath2993"><circle r="85.12" cx="346.85" cy="468.46"></circle></clipPath><pattern x="0" y="0" width="6.4" height="6.4" patternUnits="userSpaceOnUse" id="SvgjsPattern2996"><path d="M0 6.4L3.2 0L6.4 6.4" stroke="#037b0b" fill="none"></path></pattern><clipPath id="SvgjsClipPath2995"><circle r="83.2" cx="446.52" cy="510.91"></circle></clipPath><pattern x="0" y="0" width="7.92" height="7.92" patternUnits="userSpaceOnUse" id="SvgjsPattern2998"><path d="M3.96 1L3.96 6.92M1 3.96L6.92 3.96" stroke="#e73635" fill="none" stroke-width="1.51"></path></pattern><clipPath id="SvgjsClipPath2997"><circle r="23.76" cx="290.94" cy="140.53"></circle></clipPath><pattern x="0" y="0" width="11" height="11" patternUnits="userSpaceOnUse" id="SvgjsPattern3000"><path d="M0 11L5.5 0L11 11" stroke="#e73635" fill="none"></path></pattern><clipPath id="SvgjsClipPath2999"><circle r="38.5" cx="1157.6" cy="540.73"></circle></clipPath></defs></svg>